<?xml version="1.0" encoding="UTF-8" standalone="no"?>
<!-- Created with Inkscape (http://www.inkscape.org/) -->

<svg
   xmlns:dc="http://purl.org/dc/elements/1.1/"
   xmlns:cc="http://creativecommons.org/ns#"
   xmlns:rdf="http://www.w3.org/1999/02/22-rdf-syntax-ns#"
   xmlns:svg="http://www.w3.org/2000/svg"
   xmlns="http://www.w3.org/2000/svg"
   xmlns:sodipodi="http://sodipodi.sourceforge.net/DTD/sodipodi-0.dtd"
   xmlns:inkscape="http://www.inkscape.org/namespaces/inkscape"
   width="600"
   height="600"
   id="svg3010"
   version="1.1"
   inkscape:version="0.48.4 r9939"
   sodipodi:docname="anarcytag.svg">
  <title
     id="title3050">anarchy-tag</title>
  <defs
     id="defs3012" />
  <sodipodi:namedview
     id="base"
     pagecolor="#ffffff"
     bordercolor="#666666"
     borderopacity="1.0"
     inkscape:pageopacity="0.0"
     inkscape:pageshadow="2"
     inkscape:zoom="0.35"
     inkscape:cx="-1327.1429"
     inkscape:cy="520"
     inkscape:document-units="px"
     inkscape:current-layer="layer1"
     showgrid="false"
     inkscape:window-width="1920"
     inkscape:window-height="967"
     inkscape:window-x="0"
     inkscape:window-y="31"
     inkscape:window-maximized="1" />
  <metadata
     id="metadata3015">
    <rdf:RDF>
      <cc:Work
         rdf:about="">
        <dc:format>image/svg+xml</dc:format>
        <dc:type
           rdf:resource="http://purl.org/dc/dcmitype/StillImage" />
        <dc:title>anarchy-tag</dc:title>
        <cc:license
           rdf:resource="http://creativecommons.org/licenses/by/3.0/" />
        <dc:creator>
          <cc:Agent>
            <dc:title>Ulrich-Lorenz Schlüter aka audiomobster</dc:title>
          </cc:Agent>
        </dc:creator>
        <dc:date>06.05.2013</dc:date>
        <dc:rights>
          <cc:Agent>
            <dc:title>Ulrich-Lorenz Schlüter aka audiomobster</dc:title>
          </cc:Agent>
        </dc:rights>
        <dc:publisher>
          <cc:Agent>
            <dc:title>Ulrich-Lorenz Schlüter aka audiomobster</dc:title>
          </cc:Agent>
        </dc:publisher>
        <dc:identifier />
        <dc:subject>
          <rdf:Bag>
            <rdf:li>tag anarchy calligraphy</rdf:li>
          </rdf:Bag>
        </dc:subject>
        <dc:description>An anarchy tag
Ein Anarchie Tag</dc:description>
      </cc:Work>
      <cc:License
         rdf:about="http://creativecommons.org/licenses/by/3.0/">
        <cc:permits
           rdf:resource="http://creativecommons.org/ns#Reproduction" />
        <cc:permits
           rdf:resource="http://creativecommons.org/ns#Distribution" />
        <cc:requires
           rdf:resource="http://creativecommons.org/ns#Notice" />
        <cc:requires
           rdf:resource="http://creativecommons.org/ns#Attribution" />
        <cc:permits
           rdf:resource="http://creativecommons.org/ns#DerivativeWorks" />
      </cc:License>
    </rdf:RDF>
  </metadata>
  <g
     inkscape:label="Ebene 1"
     inkscape:groupmode="layer"
     id="layer1"
     transform="translate(0,-452.36218)">
    <path
       style="fill:#000000"
       id="path3454"
       d="m 288.74638,869.67123 c 8.25646,1.42929 16.4798,0.44303 24.62162,-1.33358 10.56051,-2.55565 20.76681,-6.58546 30.81075,-11.11634 2.20263,-1.21169 4.44408,-2.33096 6.60788,-3.63509 2.35672,-1.42039 9.24299,-6.08144 6.94554,-4.53359 -6.26254,4.21924 -12.48518,8.52505 -18.84118,12.54801 -2.51936,1.59458 4.88437,-3.50304 7.32444,-5.25864 8.77584,-6.314 5.21074,-3.70667 13.65922,-10.02947 9.54994,-6.7848 17.9136,-15.28683 25.41789,-24.90769 5.72595,-6.96733 9.86322,-15.2364 13.44245,-23.87221 2.3696,-6.00293 4.10037,-12.43016 4.72275,-19.02794 0.4671,-4.95152 0.30964,-8.50494 0.28379,-13.55382 -0.27495,-10.79986 -0.53597,-21.70444 -2.37577,-32.33099 -0.8742,-5.04935 -2.17341,-10.07586 -3.36678,-15.02626 -2.7801,-9.8587 -6.01726,-19.56899 -10.63635,-28.46812 -1.97312,-3.80139 -5.71769,-9.98981 -7.87644,-13.62691 -4.96463,-7.65292 -9.57881,-15.72695 -15.41449,-22.54482 -3.20999,-3.75025 -5.97232,-6.12572 -9.53303,-9.44669 -12.61305,-11.58903 -26.06762,-20.45616 -40.34399,-28.8735 -15.84227,-9.09602 -32.68269,-15.38585 -49.43992,-21.68385 -2.99541,-0.93007 -5.94049,-2.12089 -8.98622,-2.79025 -6.83251,-1.50155 -17.90851,-2.38346 -24.64209,-2.68354 -12.44624,-0.55472 -24.85972,-0.0489 -37.28232,0.77337 -20.52452,1.45066 -41.00344,3.67455 -61.3546,7.13054 -10.01212,2.22697 -20.21729,4.20427 -29.84465,8.26427 -4.622603,1.94943 -6.591102,3.23312 -10.908635,5.70023 -14.624395,10.05851 8.233112,-5.69263 18.379105,-12.17621 1.26949,-0.81125 -2.40195,1.8905 -3.55336,2.91532 -3.16428,2.81633 -5.77154,6.07458 -8.362333,9.57506 -5.146737,7.24262 -8.058165,15.90907 -10.193841,24.87423 -2.213382,10.46322 -2.967429,21.16899 -3.140331,31.90868 -0.04557,13.97981 3.403411,27.35173 7.358859,40.38551 3.078885,9.74482 6.722623,19.2247 11.449356,28.03731 3.4182,6.37297 4.90162,8.36093 8.88424,14.50444 14.55053,22.14678 34.10703,38.29827 53.40102,54.24088 23.89257,19.2536 49.02665,36.17855 74.15858,53.06756 16.87205,10.44603 34.31816,19.78675 52.62858,26.18659 7.71973,2.68269 15.63058,3.99786 23.64503,4.52838 3.99448,0.15368 2.03544,0.0976 5.87702,0.17249 0,0 -25.74128,21.76298 -25.74128,21.76298 l 0,0 c -3.83497,-0.19796 -1.88336,-0.0713 -5.85452,-0.38596 -8.0471,-0.8438 -15.99929,-2.42143 -23.64416,-5.60304 -17.91933,-7.32227 -34.91988,-17.31609 -51.58658,-27.89251 -8.30515,-5.63712 -16.68809,-11.11715 -24.96121,-16.81848 -16.76127,-11.55083 -33.12089,-23.91767 -49.31299,-36.52263 -5.60215,-4.56501 -17.551,-14.19786 -23.07125,-19.09991 -11.65968,-10.3539 -22.532224,-22.06165 -31.873819,-35.26686 -1.715912,-2.54107 -3.505892,-5.01588 -5.147734,-7.62321 -6.859517,-10.89328 -11.98637,-23.03439 -15.94951,-35.71519 -4.117161,-13.31444 -7.894231,-27.03411 -8.192388,-41.3193 -0.04365,-10.96015 0.785005,-21.89599 2.667721,-32.6471 1.921964,-9.36808 4.660747,-18.46649 9.583559,-26.31264 1.987785,-2.97533 2.862273,-4.45493 5.14246,-7.16941 1.504885,-1.79153 4.760233,-5.22555 6.561414,-6.5002 24.511757,-17.3464 21.368967,-15.31617 35.257967,-23.83226 4.53854,-2.32707 6.14603,-3.30451 11.00676,-5.12104 9.65254,-3.60727 19.73043,-5.56523 29.70328,-7.46177 20.27802,-3.19009 40.66934,-5.24999 61.10086,-6.51481 12.42114,-0.59873 24.78196,-0.85561 37.21162,-0.23817 7.49132,0.37213 18.15275,1.06472 25.65995,2.70186 3.09996,0.67602 6.09052,1.91628 9.13577,2.8744 16.91165,6.24724 33.77914,12.90461 49.69052,22.17791 7.91188,4.72011 16.00979,9.30166 23.57817,14.76236 6.07368,4.38225 11.60964,9.75251 17.52748,14.40198 4.41306,4.08838 5.97243,5.27115 9.88141,9.8847 5.9075,6.97229 10.54659,15.15785 15.4514,23.07276 1.99027,3.35526 6.24332,10.42591 8.0659,13.89846 4.78974,9.12582 8.13624,19.05577 11.00735,29.19258 1.04805,4.24061 2.80892,11.05168 3.57134,15.38754 1.8908,10.75294 2.02882,21.82137 2.62361,32.73353 0.10302,2.86058 0.46558,10.86159 0.30585,13.94633 -0.35389,6.83485 -2.06968,13.68511 -4.29679,19.96176 -3.53044,8.88682 -7.28548,17.72897 -13.15465,24.88011 -7.70878,10.23982 -15.67121,18.95067 -25.71863,26.10175 -6.95244,5.26643 -13.94512,10.53875 -21.08253,15.45714 -15.57073,10.72979 -30.99181,22.48254 -47.66963,30.9161 -10.25782,4.45383 -20.67144,8.55091 -31.46901,10.80865 -8.48405,1.48541 -16.98384,1.91741 -25.5433,0.94333 0,0 26.0138,-21.7151 26.0138,-21.7151 z"
       inkscape:connector-curvature="0" />
    <path
       style="fill:#000000"
       id="path3456"
       d="m 264.92431,477.61669 c 8.6175,4.78176 10.0109,11.79301 10.64933,22.2198 0.0634,8.80482 -1.9376,17.30403 -3.57746,25.81208 -0.5492,2.8494 -2.45069,13.50844 -2.90043,16.01564 -4.11863,22.43714 -7.7654,44.97626 -12.26861,67.31447 -4.24051,20.55922 -8.05916,41.22493 -14.06575,61.20034 -4.06318,13.19229 -8.61166,26.15398 -13.31517,39.04606 -6.44759,18.51367 -13.69774,36.62732 -21.13387,54.61918 -10.77456,24.35464 -21.04914,48.98515 -31.06409,73.77887 -9.02149,21.83433 -18.05463,43.68444 -28.81544,64.42976 -5.61441,10.86453 -12.52976,20.65583 -19.41669,30.42123 -0.82789,2.06734 -5.87704,6.94537 -5.91094,9.30066 0,0 -30.035026,13.82094 -30.035026,13.82094 l 0,0 c 0.144158,0.0613 0.291675,0.25497 0.432463,0.18377 1.715226,-0.86725 4.9685,-7.64321 6.554533,-8.87768 7.00595,-9.94115 14.41351,-19.54174 20.40343,-30.40082 4.4398,-8.09215 5.3981,-9.56679 9.50409,-18.23127 7.15607,-15.10077 13.42813,-30.76473 20.09812,-46.15885 5.17268,-12.80264 10.23129,-25.68718 15.55305,-38.40573 8.11274,-19.38873 2.00884,-4.06624 10.33345,-23.6159 1.62408,-3.81401 3.14361,-7.68787 4.71543,-11.53182 7.2441,-17.85138 14.54301,-35.72906 20.64745,-54.16181 4.549,-12.92427 9.14282,-25.82365 13.34518,-38.91141 6.75715,-19.78481 10.88563,-40.47614 14.97237,-61.20148 4.52101,-22.14152 8.06644,-44.52129 11.74068,-66.87269 0.1463,-0.9052 2.35022,-14.58149 2.59907,-15.97414 1.46114,-8.17676 3.68974,-16.25179 3.64024,-24.69731 -0.1985,-7.60417 -0.82142,-15.70142 -8.50352,-17.15406 0,0 25.81811,-21.96783 25.81811,-21.96783 z"
       inkscape:connector-curvature="0" />
    <path
       style="fill:#000000"
       id="path3458"
       d="m 229.48444,484.73827 c 2.64359,8.21595 5.37011,16.38994 7.92637,24.64443 3.27275,8.87383 5.13002,18.2854 7.21432,27.59928 1.79671,9.37598 4.26197,18.5723 6.98,27.63332 0.50142,1.53877 1.0419,3.06084 1.50426,4.61631 1.85676,6.24662 3.39365,12.61292 5.33423,18.82996 2.02707,6.49411 2.75079,8.29564 5.02826,14.62743 6.87471,19.22411 15.87826,37.26252 24.37376,55.53876 12.42718,26.84226 23.67333,54.40243 36.09585,81.24903 3.0896,6.67702 6.32266,13.26161 9.48399,19.89242 16.36534,32.63761 33.32246,64.9105 51.41561,96.27871 8.17066,15.08899 17.72359,29.06399 26.09706,43.98349 7.18517,14.65333 14.54055,29.18217 22.03324,43.62267 9.9209,18.08491 18.63544,37.36472 30.74247,53.64549 0,0 -26.84371,18.77953 -26.84371,18.77953 l 0,0 c -10.89163,-17.51475 -19.6325,-36.69001 -30.05037,-54.58132 -7.90193,-14.12635 -15.60637,-28.42129 -22.90894,-42.98405 -8.12467,-15.04912 -16.74076,-29.72804 -24.76259,-44.85596 -7.59452,-13.83774 -14.72344,-27.94769 -22.01008,-42.00842 -9.5202,-18.37072 -19.31605,-36.55218 -28.2777,-55.31366 -16.0433,-33.16115 -31.42043,-66.73537 -46.89465,-100.26151 -8.92284,-18.12937 -18.59811,-35.8944 -25.50096,-55.25663 -4.44907,-12.52116 -8.56836,-25.1715 -12.36347,-37.98356 -2.79147,-9.14626 -5.36122,-18.39855 -7.23254,-27.86928 -1.89426,-9.24141 -3.80294,-18.5256 -6.94388,-27.31802 -2.62487,-8.16003 -5.21177,-16.34241 -8.3403,-24.26241 0,0 27.89977,-18.24601 27.89977,-18.24601 z"
       inkscape:connector-curvature="0" />
    <path
       style="fill:#000000"
       id="path3460"
       d="m 39.927026,738.34719 c 9.407266,3.36349 19.111224,5.24913 28.836255,6.80159 20.749815,2.33587 41.533519,4.33203 62.339039,5.86108 4.93276,0.27373 9.86673,0.51874 14.79826,0.82116 5.96326,0.36571 11.91847,0.92288 17.88576,1.18321 28.83635,1.25798 57.74654,0.65832 86.58499,-0.0595 29.88063,-0.88372 59.75282,-2.15615 89.63611,-2.9149 19.13922,-0.42887 38.28644,-0.53265 57.42416,-0.009 21.17266,0.59239 42.34582,1.48071 63.52731,1.51313 12.68041,0.0195 26.01936,-0.34962 38.69369,-0.62871 24.70093,-0.56527 49.36668,-2.3204 74.02309,-4.06278 6.92522,-0.14321 3.6671,-0.13569 9.77424,-0.0626 0,0 -25.50127,21.6114 -25.50127,21.6114 l 0,0 c -5.75303,-0.19173 -2.68065,-0.13632 -9.21764,-0.12515 -23.99229,0.78135 -47.97747,1.9202 -71.98019,2.20258 -34.55444,0.75756 -69.10522,0.72994 -103.66336,0.20154 -19.16305,-0.14205 -38.32499,0.11039 -57.48798,0.19227 -29.2861,0.26471 -58.56874,0.75207 -87.8507,1.39931 -40.22808,0.58077 -80.48695,1.25169 -120.68696,-1.05342 -21.191402,-1.30919 -42.378365,-2.96058 -63.511285,-5.20798 -10.043588,-1.5288 -19.979583,-3.63586 -29.857608,-6.25491 0,0 26.234089,-21.40814 26.234089,-21.40814 z"
       inkscape:connector-curvature="0" />
  </g>
</svg>
